<?xml version="1.0" encoding="UTF-8" standalone="no"?>
<!-- Created with Inkscape (http://www.inkscape.org/) -->

<svg
   width="200mm"
   height="200mm"
   viewBox="0 0 200 200"
   version="1.1"
   id="svg1"
   inkscape:version="1.3.2 (091e20e, 2023-11-25)"
   sodipodi:docname="logo.svg"
   xmlns:inkscape="http://www.inkscape.org/namespaces/inkscape"
   xmlns:sodipodi="http://sodipodi.sourceforge.net/DTD/sodipodi-0.dtd"
   xmlns="http://www.w3.org/2000/svg"
   xmlns:svg="http://www.w3.org/2000/svg">
  <sodipodi:namedview
     id="namedview1"
     pagecolor="#629dd7"
     bordercolor="#000000"
     borderopacity="0.25"
     inkscape:showpageshadow="2"
     inkscape:pageopacity="0.0"
     inkscape:pagecheckerboard="0"
     inkscape:deskcolor="#d1d1d1"
     inkscape:document-units="mm"
     inkscape:zoom="0.61863193"
     inkscape:cx="624.76569"
     inkscape:cy="444.52927"
     inkscape:window-width="1440"
     inkscape:window-height="803"
     inkscape:window-x="0"
     inkscape:window-y="25"
     inkscape:window-maximized="0"
     inkscape:current-layer="layer1" />
  <defs
     id="defs1" />
  <g
     inkscape:label="Layer 1"
     inkscape:groupmode="layer"
     id="layer1">
    <g
       id="g2"
       transform="matrix(0.28097359,-0.26058879,0.15148575,0.25389353,25.752267,167.15411)">
      <path
         id="primary"
         d="m 40.389786,105.87009 q -6.999291,-2.2817 -14.118452,-5.16404 a 215.59662,121.98198 39.418713 0 1 -89.700769,-58.723778 13.891534,7.8596636 39.418713 0 1 -4.449785,-14.647425 13.891534,7.8596636 39.418713 0 1 16.052033,3.922468 190.31402,107.67739 39.418713 0 0 76.672926,50.826657 196.56521,111.21424 39.418713 0 0 76.881921,12.520991 13.891534,7.8596636 39.418713 0 1 16.53069,9.600577 13.891534,7.8596636 39.418713 0 1 -2.45604,11.74105 233.93343,132.35674 39.418713 0 1 -75.412524,-10.0765 z"
         style="fill:#ffffff;stroke-width:10.4491" />
      <path
         style="fill:#ffffff;stroke-width:1.08586"
         d="m 123.84146,144.26434 c -3.64477,-0.75107 -7.06248,-4.69529 -7.06448,-8.15275 -10e-4,-1.75757 1.93097,-7.48941 4.2933,-12.73742 8.11696,-18.03222 11.41019,-30.905702 8.73157,-34.132403 -1.74924,-2.107156 -15.62747,-6.466919 -26.09003,-8.196036 -10.003893,-1.65331 -11.742535,-2.526981 -13.544213,-6.805977 -1.766205,-4.194745 -0.376189,-8.865086 3.367181,-11.31349 7.806072,-5.105654 41.446002,3.731158 52.861682,13.886144 l 4.56139,4.057662 -0.18023,8.063914 c -0.0991,4.435154 -1.20713,12.394956 -2.4622,17.688446 -2.22655,9.3908 -9.6365,26.7346 -14.09746,32.99663 -2.39545,3.36258 -6.8733,5.36719 -10.37651,4.64528 z"
         id="path2" />
    </g>
    <g
       id="g3"
       transform="matrix(1.5854772,0,0,1.2465492,-58.53768,-34.717285)">
      <path
         id="primary-7"
         d="m 91.600601,73.247539 q 1.034298,-1.623611 2.174494,-3.143088 a 36.5642,51.17133 18.506932 0 1 17.884885,-13.880862 2.3559407,3.2971217 18.506932 0 1 2.72987,2.068383 2.3559407,3.2971217 18.506932 0 1 -2.16628,4.031417 32.276388,45.170568 18.506932 0 0 -15.386542,11.716428 33.336561,46.654273 18.506932 0 0 -9.391555,20.780809 2.3559407,3.2971217 18.506932 0 1 -3.104149,2.845043 2.3559407,3.2971217 18.506932 0 1 -1.6065,-3.516384 39.67404,55.523528 18.506932 0 1 8.865777,-20.901746 z"
         style="fill:#ffffff;stroke-width:2.78708" />
      <path
         style="fill:#ffffff;stroke-width:0.280905"
         d="m 118.1975,65.572618 c -1.05985,-0.07709 -1.9612,-0.888293 -1.86314,-1.676792 0.0498,-0.400828 0.78655,-1.758028 1.6371,-3.016018 2.92252,-4.322458 4.26682,-7.343661 3.56424,-8.010333 -0.45881,-0.435354 -4.45155,-1.070931 -7.50607,-1.19483 -2.9206,-0.118462 -3.41145,-0.272775 -3.82384,-1.202111 -0.40428,-0.911042 0.14134,-2.012148 1.32172,-2.667327 2.46145,-1.366243 12.189,-0.220449 15.28585,1.800514 l 1.2374,0.80751 -0.28355,1.843809 c -0.15592,1.014106 -0.71174,2.858148 -1.23516,4.09787 -0.92849,2.199326 -3.62161,6.346501 -5.12369,7.890003 -0.80661,0.828818 -2.1922,1.401784 -3.21086,1.327705 z"
         id="path2-9" />
    </g>
    <path
       style="fill:#ffffff;stroke-width:0.427691"
       d="m 15.85532,178.36332 c -1.159237,-0.46569 -2.859578,-1.57402 -3.778536,-2.46296 -2.4979633,-2.41638 -3.4195586,-4.51443 -3.6457163,-8.29963 -0.2463236,-4.12273 0.6038075,-6.85565 2.9681243,-9.54166 4.402893,-5.00195 11.016837,-6.33772 21.480541,-4.33825 l 2.94136,0.56204 -0.200052,-4.15449 c -0.23346,-4.84823 -1.28928,-7.30783 -3.758059,-8.75462 -1.293289,-0.75791 -2.224167,-0.87724 -6.843056,-0.87724 -4.929948,0 -5.643632,0.10636 -9.167577,1.36632 -2.101792,0.75148 -3.978286,1.26939 -4.169988,1.15091 -0.191702,-0.11848 -0.348548,-1.35558 -0.348548,-2.74912 v -2.5337 l 2.141483,-1.08517 c 3.818699,-1.93508 8.978214,-2.89701 14.324622,-2.67065 7.973087,0.33757 12.194387,2.77076 14.350963,8.27201 0.929516,2.37112 1.005195,3.2882 1.23198,14.92935 l 0.241625,12.40304 1.17615,2.5109 c 0.646882,1.381 1.176149,2.675 1.176149,2.87555 0,0.53865 -4.362529,3.38121 -5.189198,3.38121 -0.881105,0 -3.000315,-2.36486 -3.757642,-4.19321 -0.311375,-0.75172 -0.742685,-1.36677 -0.958464,-1.36677 -0.215781,0 -1.202851,0.78043 -2.193491,1.73429 -0.990639,0.95386 -3.041015,2.34571 -4.556392,3.093 -2.458752,1.2125 -3.218114,1.37144 -7.056903,1.47713 -3.486101,0.096 -4.701279,-0.0421 -6.409375,-0.72828 z m 12.535402,-5.81454 c 1.559052,-0.46299 2.874677,-1.27806 4.314683,-2.67307 2.380514,-2.30614 3.118627,-4.35031 2.920732,-8.08883 -0.12039,-2.27435 -0.202004,-2.43488 -1.410853,-2.7752 -0.705692,-0.19866 -3.211632,-0.47878 -5.568754,-0.62249 -8.904575,-0.54286 -12.822178,2.42059 -12.066219,9.12743 0.55002,4.87976 5.385633,6.94011 11.810411,5.03216 z"
       id="path9" />
    <path
       style="fill:#ffffff;stroke-width:1.61647"
       d=""
       id="path11"
       transform="scale(0.26458333)" />
    <path
       style="fill:#ffffff;stroke-width:0.888897"
       d="m 160.16143,53.114574 c -5.29414,-1.040077 -8.10696,-3.027346 -8.10696,-5.727589 0,-2.608617 -0.17087,-2.584495 5.3999,-0.762386 5.64608,1.846739 14.2274,1.353624 16.78919,-0.964771 2.0985,-1.899119 2.44747,-6.83995 0.59186,-8.379965 -0.67058,-0.556536 -3.99402,-1.955644 -7.3854,-3.10913 -8.82931,-3.003042 -11.61751,-4.64372 -13.24716,-7.795118 -3.05558,-5.908857 -0.99596,-12.401533 5.00374,-15.773552 7.09187,-3.985851 21.737,-1.646752 21.737,3.471802 0,1.518877 -0.42202,2.125281 -1.33335,1.915904 -13.5894,-3.122172 -19.55572,-1.878111 -19.55572,4.077646 0,3.536612 2.21536,5.266241 10.10273,7.88765 9.83549,3.268877 13.00858,6.391428 13.00858,12.801375 0,4.174638 -0.33299,4.970692 -3.33336,7.9689 -2.46007,2.458289 -4.56744,3.595283 -8.04382,4.339905 -5.27329,1.129509 -6.11088,1.133063 -11.62723,0.04933 z"
       id="path5" />
    <path
       style="fill:#ffffff;stroke-width:0.427691"
       d="m 68.777463,137.115 c -0.73824,-0.83591 -12.72999,-39.883521 -12.72999,-41.451463 0,-0.965521 0.11385,-0.996868 3.62033,-0.996868 3.27996,0 3.66714,0.08747 4.11829,0.930447 0.27387,0.511746 2.30367,8.065834 4.51066,16.786864 4.2413,16.75978 4.34851,17.15038 4.6301,16.86879 0.0986,-0.0986 1.91144,-7.52795 4.02849,-16.50964 2.11705,-8.98168 4.05945,-16.72321 4.31644,-17.203397 0.41308,-0.771851 0.88088,-0.873064 4.03521,-0.873064 2.50432,0 3.71334,0.17518 4.05566,0.587642 0.26823,0.323202 2.22174,7.973529 4.34113,17.000709 4.02786,17.15602 4.16992,17.71236 4.45123,17.43105 0.0955,-0.0955 2.035427,-7.38847 4.310897,-16.20655 2.27547,-8.81807 4.39626,-16.65836 4.71287,-17.422858 l 0.57566,-1.389993 h 3.6572 c 3.11736,0 3.65719,0.104439 3.65719,0.707548 0,1.329669 -12.50834,40.990373 -13.16436,41.740783 -0.51685,0.59121 -1.34533,0.74846 -3.943277,0.74846 -2.59541,0 -3.42833,-0.15783 -3.94992,-0.74846 -0.36352,-0.41166 -2.41909,-8.05083 -4.56792,-16.97596 -2.14882,-8.92512 -3.98564,-16.30617 -4.08181,-16.40235 -0.23161,-0.23161 -0.49552,0.80198 -4.29103,16.80528 -3.80283,16.03422 -3.89297,16.34331 -4.92769,16.89708 -0.43616,0.23342 -2.12307,0.42441 -3.74869,0.42441 -2.27798,0 -3.10722,-0.17161 -3.61667,-0.74846 z"
       id="path7" />
  </g>
</svg>
